<?xml version="1.0" encoding="UTF-8" standalone="no"?>
<!-- Created with Inkscape (http://www.inkscape.org/) -->

<svg
   xmlns:dc="http://purl.org/dc/elements/1.1/"
   xmlns:cc="http://creativecommons.org/ns#"
   xmlns:rdf="http://www.w3.org/1999/02/22-rdf-syntax-ns#"
   xmlns:svg="http://www.w3.org/2000/svg"
   xmlns="http://www.w3.org/2000/svg"
   xmlns:sodipodi="http://sodipodi.sourceforge.net/DTD/sodipodi-0.dtd"
   xmlns:inkscape="http://www.inkscape.org/namespaces/inkscape"
   width="169.37106mm"
   height="113.06343mm"
   viewBox="0 0 169.37106 113.06343"
   version="1.1"
   id="svg8"
   inkscape:version="0.92.1 r15371"
   sodipodi:docname="nilpass-thinking.svg">
  <defs
     id="defs2">
    <linearGradient
       id="linearGradient12168">
      <stop
         offset="0"
         style="stop-color:#a1a49f"
         id="stop12170" />
      <stop
         offset="1"
         style="stop-color:#b0b3af"
         id="stop12172" />
    </linearGradient>
    <linearGradient
       id="linearGradient11151">
      <stop
         offset="0"
         style="stop-color:#555753"
         id="stop11153" />
      <stop
         offset="1"
         style="stop-color:#caccc9"
         id="stop11155" />
    </linearGradient>
  </defs>
  <sodipodi:namedview
     id="base"
     pagecolor="#ffffff"
     bordercolor="#666666"
     borderopacity="1.0"
     inkscape:pageopacity="0"
     inkscape:pageshadow="2"
     inkscape:zoom="0.5"
     inkscape:cx="-115.44807"
     inkscape:cy="27.370188"
     inkscape:document-units="mm"
     inkscape:current-layer="layer1"
     showgrid="false"
     inkscape:pagecheckerboard="true"
     fit-margin-top="0"
     fit-margin-left="0"
     fit-margin-right="0"
     fit-margin-bottom="0"
     inkscape:window-width="1680"
     inkscape:window-height="987"
     inkscape:window-x="-8"
     inkscape:window-y="-8"
     inkscape:window-maximized="1"
     inkscape:snap-others="false"
     inkscape:object-nodes="true"
     inkscape:snap-nodes="false" />
  <metadata
     id="metadata5">
    <rdf:RDF>
      <cc:Work
         rdf:about="">
        <dc:format>image/svg+xml</dc:format>
        <dc:type
           rdf:resource="http://purl.org/dc/dcmitype/StillImage" />
        <dc:title></dc:title>
      </cc:Work>
    </rdf:RDF>
  </metadata>
  <g
     inkscape:label="Layer 1"
     inkscape:groupmode="layer"
     id="layer1"
     transform="translate(-32.217699,-31.388963)">
    <path
       sodipodi:nodetypes="cccc"
       inkscape:connector-curvature="0"
       id="path5946"
       d="m 104.48711,86.679598 45.14639,13.080632 -0.37417,4.49013 z"
       style="fill:#ffffff;fill-rule:evenodd;stroke:none;stroke-width:0.26458332px;stroke-linecap:butt;stroke-linejoin:miter;stroke-opacity:1" />
    <path
       style="fill:#ffffff;fill-rule:evenodd;stroke:none;stroke-width:0.26458332px;stroke-linecap:butt;stroke-linejoin:miter;stroke-opacity:1"
       d="m 102.57083,55.783379 46.9432,-1.282556 0.37418,4.209496 z"
       id="path5944"
       inkscape:connector-curvature="0"
       sodipodi:nodetypes="cccc" />
    <path
       inkscape:connector-curvature="0"
       style="fill:#666666;stroke:none;stroke-width:0.26458332"
       d="m 88.838534,92.59406 c -7.9375,0 -15.875,7.9375 -15.875,15.875 v 15.875 c 0,7.9375 7.9375,15.875 15.875,15.875 7.9375,0 15.875006,-7.9375 15.875006,-15.875 v -15.875 c 0,-7.9375 -7.937506,-15.875 -15.875006,-15.875 z m 0,6.35 c 4.7625,0 9.525,4.7625 9.525,9.525 v 9.525 6.35 c 0,4.7625 -4.7625,9.525 -9.525,9.525 -4.7625,0 -9.525,-4.7625 -9.525,-9.525 v -6.35 -9.525 c 0,-4.7625 4.7625,-9.525 9.525,-9.525 z"
       id="path4090" />
    <rect
       style="fill:#c8ab37;fill-opacity:1;stroke:none;stroke-width:0.26458332"
       id="rect4092"
       width="44.450001"
       height="31.75"
       x="66.613533"
       y="111.64406" />
    <path
       inkscape:connector-curvature="0"
       style="fill:#b19d4e;fill-opacity:1;stroke:none;stroke-width:0.26458332"
       d="m 72.963534,111.64406 v 12.7 c 0,7.9375 7.9375,15.875 15.875,15.875 7.9375,0 15.875006,-7.9375 15.875006,-15.875 v -12.7 h -6.350006 v 6.35 6.35 c 0,4.7625 -4.7625,9.525 -9.525,9.525 -4.7625,0 -9.525,-4.7625 -9.525,-9.525 v -6.35 -6.35 z"
       id="rect4098" />
    <path
       style="fill:#ffffff;stroke:none;stroke-width:9.28887749;stroke-linejoin:round"
       d="M 131.53125 7.9746094 C 119.03999 7.9746094 108.20854 14.708718 102.14258 24.650391 C 96.521514 20.680568 89.703374 18.275391 82.302734 18.275391 C 63.240729 18.275391 47.763672 33.752447 47.763672 52.814453 C 47.763672 54.209023 48.019079 55.552503 48.181641 56.904297 C 31.729111 59.530883 19.09375 73.665203 19.09375 90.853516 C 19.09375 107.88783 31.482065 121.98792 47.720703 124.80273 C 47.395588 126.71064 47.130859 128.66129 47.130859 130.67188 C 47.130859 149.72532 62.607916 165.1582 81.669922 165.1582 C 91.004142 165.1582 99.43043 161.43799 105.65039 155.40625 C 111.98158 162.94378 121.34216 167.86328 131.95117 167.86328 C 147.08613 167.86328 159.80861 158.03142 164.46289 144.4707 C 168.19316 145.84816 172.16171 146.75586 176.37109 146.75586 C 195.42454 146.75586 210.85937 131.27025 210.85938 112.2168 C 210.85938 102.63446 206.95861 93.984653 200.64453 87.730469 C 203.83579 82.502959 205.79492 76.43793 205.79492 69.867188 C 205.79492 50.813739 190.31712 35.378906 171.26367 35.378906 C 169.25309 35.378906 167.30244 35.592102 165.39453 35.925781 C 162.3145 20.012258 148.33456 7.9746094 131.53125 7.9746094 z M 165.37695 59.419922 C 166.49707 59.255987 168.0241 60.371839 169.01367 62.169922 C 170.14491 64.224889 170.14636 66.396546 169.02148 67.015625 L 160.25781 71.640625 C 161.8356 74.507465 165.31533 75.658215 168.26172 74.396484 L 173.53516 83.978516 L 172.53125 84.533203 C 172.53125 84.533203 172.4698 84.569175 172.37305 84.619141 C 171.69558 84.967099 168.75125 85.938387 164.8418 79.226562 C 165.6013 78.514715 165.9653 77.735554 165.66797 77.195312 C 165.24956 76.435072 163.70503 76.475193 162.22266 77.291016 C 160.74032 78.106834 159.8785 79.392084 160.29688 80.152344 C 160.60688 80.71572 161.53516 80.810691 162.59766 80.503906 L 166.60938 87.791016 C 163.32027 89.601171 161.6817 88.359924 159.99609 85.556641 C 160.37983 85.018096 160.50887 84.479845 160.29102 84.083984 C 159.87261 83.323755 158.32809 83.365807 156.8457 84.181641 C 155.36336 84.997471 154.50155 86.280764 154.91992 87.041016 C 155.29371 87.720189 156.56889 87.745652 157.89258 87.164062 L 160.18359 91.328125 L 156.46094 93.376953 C 154.37678 91.045801 152.78494 88.319814 150.82617 84.771484 C 150.89069 84.739056 150.959 84.719121 151.02344 84.683594 C 152.69412 83.76411 153.66901 82.314707 153.18945 81.443359 C 152.70993 80.572084 150.95588 80.605918 149.28516 81.525391 C 147.61442 82.44487 146.6474 83.90991 147.12695 84.78125 C 147.37992 85.240856 147.99533 85.440541 148.75586 85.398438 C 151.21471 89.874324 152.62043 92.583316 153.08398 95.234375 L 150.44531 96.6875 L 150.44531 96.685547 L 142.14648 81.607422 L 111.66602 98.582031 C 111.68548 98.895706 111.74275 99.24375 111.85742 99.644531 C 112.73391 102.70748 105.35432 106.80131 105.52734 109.98242 C 103.53848 117.82731 111.5906 119.21653 106.32422 125.61328 C 103.94491 127.73195 103.26559 125.45226 100.47461 126.98828 C 97.683504 128.52437 99.242496 130.3189 96.179688 131.19531 C 93.116747 132.0718 93.4919 129.72357 90.310547 129.89648 C 87.129349 130.06946 87.756977 132.36357 84.617188 131.82422 C 81.477232 131.28495 82.833859 129.33197 79.892578 128.10742 C 76.951346 126.88295 76.522584 129.22136 73.927734 127.37305 C 71.332752 125.52481 73.401825 124.3539 71.283203 121.97461 C 69.164521 119.59528 67.762638 121.51764 66.226562 118.72656 L 66.224609 118.72461 C 64.688496 115.93349 67.062042 115.77774 66.185547 112.71484 C 65.30904 109.65187 63.212014 110.77297 63.039062 107.5918 C 62.866228 104.41066 65.072201 105.29999 65.611328 102.16016 C 66.150599 99.0202 63.775607 99.121018 65 96.179688 C 66.224457 93.238459 67.825764 94.995293 69.673828 92.400391 C 71.522059 89.805393 69.337426 88.866827 71.716797 86.748047 C 74.096108 84.629376 74.777382 86.907116 77.568359 85.371094 C 80.359465 83.835003 78.800469 82.040471 81.863281 81.164062 C 89.953851 81.357578 87.232267 86.49008 94.640625 90.201172 C 97.235607 92.04941 104.64119 88.005451 106.75977 90.384766 C 107.04542 90.705568 107.31647 90.944302 107.57812 91.130859 L 148.67773 68.511719 L 148.67188 68.5 L 164.21875 59.943359 L 164.22461 59.955078 L 164.92383 59.570312 C 165.06444 59.492928 165.21694 59.443341 165.37695 59.419922 z M 75.992188 109.3457 C 75.177018 109.27118 74.331157 109.42941 73.560547 109.85352 C 71.505591 110.98446 70.755771 113.57004 71.886719 115.625 C 73.017667 117.67996 75.603248 118.42978 77.658203 117.29883 C 79.713162 116.16788 80.462976 113.5823 79.332031 111.52734 C 78.625191 110.24299 77.350804 109.46991 75.992188 109.3457 z "
       transform="matrix(0.26458333,0,0,0.26458333,32.217699,31.388963)"
       id="path3422" />
    <circle
       r="3.4100747"
       cy="79.796837"
       cx="76.31237"
       id="path3424"
       style="fill:#ffffff;stroke:none;stroke-width:1.71544421;stroke-linejoin:round" />
    <circle
       r="2.3668838"
       cy="87.234871"
       cx="80.858391"
       id="path3426"
       style="fill:#ffffff;stroke:none;stroke-width:1.34055591;stroke-linejoin:round" />
    <path
       inkscape:connector-curvature="0"
       id="path1096"
       d="m 151.72204,41.605394 a 2.9723195,2.9723195 0 0 0 -2.97243,2.971912 v 28.640113 a 2.9723195,2.9723195 0 0 0 2.97243,2.971912 h 37.03598 a 2.9723195,2.9723195 0 0 0 0.11524,-5.941756 V 47.545083 a 2.9723195,2.9723195 0 0 0 -0.11524,-5.939689 z m 0,1.830379 h 37.03598 a 1.1432202,1.1432202 0 1 1 0,2.286166 h -35.8929 v 26.352396 h 35.8929 a 1.1432202,1.1432202 0 1 1 0,2.286167 h -37.03598 a 1.1432202,1.1432202 0 0 1 -1.14309,-1.143083 V 44.578856 a 1.1432202,1.1432202 0 0 1 1.14309,-1.143083 z m 11.54916,7.905978 c 0.38425,0 0.73606,0.06364 1.05627,0.191719 0.33272,0.128083 0.59542,0.333019 0.78755,0.61495 0.19212,0.26868 0.28784,0.614838 0.28784,1.036629 0,0.320208 -0.0517,0.755253 -0.154,1.305864 -0.10232,0.538096 -0.17256,0.946935 -0.21084,1.228865 0.41001,-0.28193 0.7743,-0.543896 1.09451,-0.787549 0.33272,-0.256166 0.65267,-0.454198 0.95963,-0.594795 0.30769,-0.153847 0.60908,-0.230477 0.90279,-0.230477 0.60214,0 1.10742,0.230625 1.5167,0.69143 0.41001,0.460806 0.61495,0.99817 0.61495,1.612822 0,0.435041 -0.16647,0.800062 -0.4992,1.094507 -0.33272,0.294444 -0.87082,0.594576 -1.61282,0.90227 -0.74273,0.294444 -1.13961,0.454311 -1.19114,0.480073 0.0515,0.02577 0.44841,0.192239 1.19114,0.499195 0.75525,0.306959 1.29262,0.601221 1.61282,0.88315 0.33273,0.268682 0.4992,0.62049 0.4992,1.056267 0,0.627166 -0.20494,1.178259 -0.61495,1.65158 -0.40928,0.474054 -0.91456,0.710033 -1.5167,0.710033 -0.40928,0 -0.87714,-0.178949 -1.40199,-0.537435 -0.52484,-0.358484 -1.04261,-0.716902 -1.55494,-1.075386 0.064,0.410014 0.14089,0.845058 0.22996,1.305864 0.0898,0.460804 0.13488,0.850779 0.13488,1.170988 0,0.640416 -0.20442,1.120749 -0.61444,1.440222 -0.39676,0.307695 -0.90256,0.461471 -1.51722,0.461471 -0.6014,0 -1.10742,-0.153776 -1.5167,-0.461471 -0.39676,-0.319473 -0.59531,-0.799806 -0.59531,-1.440222 0,-0.204639 0.0517,-0.588743 0.15399,-1.151869 0.10232,-0.563123 0.16648,-1.004776 0.19224,-1.324983 -0.67869,0.473319 -1.12695,0.793787 -1.3441,0.960149 -0.21789,0.153845 -0.48111,0.300718 -0.78807,0.441315 -0.29444,0.141335 -0.57623,0.211357 -0.84491,0.211357 -0.61392,0 -1.11355,-0.230108 -1.49707,-0.690915 -0.37173,-0.460803 -0.55758,-1.017767 -0.55758,-1.670698 0,-0.460804 0.1606,-0.825825 0.48007,-1.094507 0.32021,-0.268679 0.83849,-0.543859 1.55546,-0.825789 0.71697,-0.294444 1.12706,-0.467524 1.22938,-0.518316 -0.10232,-0.05152 -0.51241,-0.217998 -1.22938,-0.499192 -0.70372,-0.294444 -1.22274,-0.582836 -1.55546,-0.864031 -0.31947,-0.294444 -0.48007,-0.666072 -0.48007,-1.113627 0,-0.627167 0.18585,-1.165267 0.55758,-1.612822 0.38352,-0.460805 0.88315,-0.69143 1.49707,-0.69143 0.38425,0 0.73606,0.10232 1.05627,0.306958 0.33272,0.204639 0.97344,0.639683 1.92081,1.305863 -0.0258,-0.28193 -0.0899,-0.723582 -0.19224,-1.324983 -0.10232,-0.602139 -0.15399,-1.004371 -0.15399,-1.209746 0,-0.63968 0.19855,-1.107537 0.59531,-1.401982 0.40928,-0.294444 0.9153,-0.441316 1.5167,-0.441316 z m 15.3045,0 c 0.38351,0 0.73576,0.06364 1.05523,0.191719 0.33272,0.128083 0.59594,0.333019 0.78806,0.61495 0.19213,0.26868 0.28784,0.614838 0.28784,1.036629 0,0.320208 -0.0509,0.755253 -0.15399,1.305864 -0.10232,0.538096 -0.17235,0.946935 -0.21136,1.228865 0.41001,-0.28193 0.77504,-0.543896 1.09451,-0.787549 0.33345,-0.256166 0.65297,-0.454198 0.96066,-0.594795 0.30696,-0.153847 0.60835,-0.230477 0.90279,-0.230477 0.6014,0 1.10691,0.230625 1.51619,0.69143 0.41001,0.460806 0.61443,0.99817 0.61443,1.612822 0,0.435041 -0.16596,0.800062 -0.49868,1.094507 -0.33272,0.294444 -0.87082,0.594576 -1.61282,0.90227 -0.74274,0.294444 -1.13962,0.454311 -1.19114,0.480073 0.0515,0.02577 0.4484,0.192239 1.19114,0.499195 0.75525,0.306959 1.29261,0.601221 1.61282,0.88315 0.33272,0.268682 0.49868,0.62049 0.49868,1.056267 0,0.627166 -0.20442,1.178259 -0.61443,1.65158 -0.40928,0.474054 -0.91479,0.710033 -1.51619,0.710033 -0.41001,0 -0.87765,-0.178949 -1.4025,-0.537435 -0.52484,-0.358484 -1.04313,-0.716902 -1.55546,-1.075386 0.064,0.410014 0.14119,0.845058 0.23099,1.305864 0.0891,0.460804 0.13436,0.850779 0.13436,1.170988 0,0.640416 -0.20493,1.120749 -0.61495,1.440222 -0.39676,0.307695 -0.90227,0.461471 -1.51618,0.461471 -0.60214,0 -1.10795,-0.153776 -1.51722,-0.461471 -0.39677,-0.319473 -0.59532,-0.799806 -0.59532,-1.440222 0,-0.204639 0.0512,-0.588743 0.15348,-1.151869 0.10232,-0.563123 0.16647,-1.004776 0.19224,-1.324983 -0.67869,0.473319 -1.12695,0.793787 -1.34411,0.960149 -0.21788,0.153845 -0.47985,0.300718 -0.78754,0.441315 -0.29445,0.141335 -0.57572,0.211357 -0.8444,0.211357 -0.61465,0 -1.11385,-0.230108 -1.4981,-0.690915 -0.371,-0.460803 -0.55707,-1.017767 -0.55707,-1.670698 0,-0.460804 0.16061,-0.825825 0.48008,-1.094507 0.3202,-0.268679 0.83922,-0.543859 1.55546,-0.825789 0.71697,-0.294444 1.12654,-0.467524 1.22886,-0.518316 -0.10232,-0.05152 -0.51189,-0.217998 -1.22886,-0.499192 -0.70372,-0.294444 -1.22201,-0.582836 -1.55546,-0.864031 -0.31947,-0.294444 -0.48008,-0.666072 -0.48008,-1.113627 0,-0.627167 0.18607,-1.165267 0.55707,-1.612822 0.38425,-0.460805 0.88345,-0.69143 1.4981,-0.69143 0.38352,0 0.73554,0.10232 1.05575,0.306958 0.33273,0.204639 0.97292,0.639683 1.9203,1.305863 -0.0258,-0.28193 -0.0899,-0.723582 -0.19224,-1.324983 -0.10232,-0.602139 -0.15348,-1.004371 -0.15348,-1.209746 0,-0.63968 0.19855,-1.107537 0.59532,-1.401982 0.40927,-0.294444 0.91508,-0.441316 1.51722,-0.441316 z"
       style="color:#000000;font-style:normal;font-variant:normal;font-weight:normal;font-stretch:normal;font-size:medium;line-height:normal;font-family:sans-serif;font-variant-ligatures:normal;font-variant-position:normal;font-variant-caps:normal;font-variant-numeric:normal;font-variant-alternates:normal;font-feature-settings:normal;text-indent:0;text-align:start;text-decoration:none;text-decoration-line:none;text-decoration-style:solid;text-decoration-color:#000000;letter-spacing:normal;word-spacing:normal;text-transform:none;writing-mode:lr-tb;direction:ltr;text-orientation:mixed;dominant-baseline:auto;baseline-shift:baseline;text-anchor:start;white-space:normal;shape-padding:0;clip-rule:nonzero;display:inline;overflow:visible;visibility:visible;opacity:1;isolation:auto;mix-blend-mode:normal;color-interpolation:sRGB;color-interpolation-filters:linearRGB;solid-color:#000000;solid-opacity:1;vector-effect:none;fill:#ffffff;fill-opacity:1;fill-rule:nonzero;stroke:none;stroke-width:5.94404459;stroke-linecap:round;stroke-linejoin:round;stroke-miterlimit:4;stroke-dasharray:none;stroke-dashoffset:0;stroke-opacity:1;color-rendering:auto;image-rendering:auto;shape-rendering:auto;text-rendering:auto;enable-background:accumulate" />
    <path
       inkscape:connector-curvature="0"
       style="color:#000000;font-style:normal;font-variant:normal;font-weight:normal;font-stretch:normal;font-size:medium;line-height:normal;font-family:sans-serif;font-variant-ligatures:normal;font-variant-position:normal;font-variant-caps:normal;font-variant-numeric:normal;font-variant-alternates:normal;font-feature-settings:normal;text-indent:0;text-align:start;text-decoration:none;text-decoration-line:none;text-decoration-style:solid;text-decoration-color:#000000;letter-spacing:normal;word-spacing:normal;text-transform:none;writing-mode:lr-tb;direction:ltr;text-orientation:mixed;dominant-baseline:auto;baseline-shift:baseline;text-anchor:start;white-space:normal;shape-padding:0;clip-rule:nonzero;display:inline;overflow:visible;visibility:visible;opacity:1;isolation:auto;mix-blend-mode:normal;color-interpolation:sRGB;color-interpolation-filters:linearRGB;solid-color:#000000;solid-opacity:1;vector-effect:none;fill:#ffffff;fill-opacity:1;fill-rule:nonzero;stroke:none;stroke-width:5.94404459;stroke-linecap:round;stroke-linejoin:round;stroke-miterlimit:4;stroke-dasharray:none;stroke-dashoffset:0;stroke-opacity:1;color-rendering:auto;image-rendering:auto;shape-rendering:auto;text-rendering:auto;enable-background:accumulate"
       d="m 151.72204,84.203311 a 2.9723195,2.9723195 0 0 0 -2.97243,2.971912 v 28.640117 a 2.9723195,2.9723195 0 0 0 2.97243,2.97191 h 37.03598 a 2.9723195,2.9723195 0 0 0 0.11524,-5.94176 V 90.143 a 2.9723195,2.9723195 0 0 0 -0.11524,-5.939689 z m 0,1.830379 h 37.03598 a 1.1432202,1.1432202 0 1 1 0,2.286166 h -35.8929 v 26.352394 h 35.8929 a 1.1432202,1.1432202 0 1 1 0,2.28617 h -37.03598 a 1.1432202,1.1432202 0 0 1 -1.14309,-1.14308 V 87.176773 a 1.1432202,1.1432202 0 0 1 1.14309,-1.143083 z m 11.54916,7.905978 c 0.38425,0 0.73606,0.06364 1.05627,0.191719 0.33272,0.128083 0.59542,0.333019 0.78755,0.61495 0.19212,0.26868 0.28784,0.614838 0.28784,1.036629 0,0.320208 -0.0517,0.755253 -0.154,1.305864 -0.10232,0.538096 -0.17256,0.946935 -0.21084,1.228865 0.41001,-0.28193 0.7743,-0.543896 1.09451,-0.787549 0.33272,-0.256166 0.65267,-0.454198 0.95963,-0.594795 0.30769,-0.153847 0.60908,-0.230477 0.90279,-0.230477 0.60214,0 1.10742,0.230625 1.5167,0.69143 0.41001,0.460806 0.61495,0.99817 0.61495,1.612822 0,0.435041 -0.16647,0.800062 -0.4992,1.094504 -0.33272,0.29445 -0.87082,0.59458 -1.61282,0.90227 -0.74273,0.29445 -1.13961,0.45431 -1.19114,0.48008 0.0515,0.0258 0.44841,0.19223 1.19114,0.49919 0.75525,0.30696 1.29262,0.60122 1.61282,0.88315 0.33273,0.26868 0.4992,0.62049 0.4992,1.05627 0,0.62716 -0.20494,1.17826 -0.61495,1.65158 -0.40928,0.47405 -0.91456,0.71003 -1.5167,0.71003 -0.40928,0 -0.87714,-0.17895 -1.40199,-0.53743 -0.52484,-0.35849 -1.04261,-0.71691 -1.55494,-1.07539 0.064,0.41001 0.14089,0.84506 0.22996,1.30586 0.0898,0.46081 0.13488,0.85078 0.13488,1.17099 0,0.64042 -0.20442,1.12075 -0.61444,1.44022 -0.39676,0.3077 -0.90256,0.46147 -1.51722,0.46147 -0.6014,0 -1.10742,-0.15377 -1.5167,-0.46147 -0.39676,-0.31947 -0.59531,-0.7998 -0.59531,-1.44022 0,-0.20464 0.0517,-0.58874 0.15399,-1.15187 0.10232,-0.56312 0.16648,-1.00477 0.19224,-1.32498 -0.67869,0.47332 -1.12695,0.79379 -1.3441,0.96015 -0.21789,0.15384 -0.48111,0.30072 -0.78807,0.44131 -0.29444,0.14134 -0.57623,0.21136 -0.84491,0.21136 -0.61392,0 -1.11355,-0.23011 -1.49707,-0.69091 -0.37173,-0.46081 -0.55758,-1.01777 -0.55758,-1.6707 0,-0.46081 0.1606,-0.82583 0.48007,-1.09451 0.32021,-0.26868 0.83849,-0.54386 1.55546,-0.82579 0.71697,-0.29444 1.12706,-0.46752 1.22938,-0.51831 -0.10232,-0.0515 -0.51241,-0.218 -1.22938,-0.4992 -0.70372,-0.29444 -1.22274,-0.58283 -1.55546,-0.86403 -0.31947,-0.294441 -0.48007,-0.666069 -0.48007,-1.113624 0,-0.627167 0.18585,-1.165267 0.55758,-1.612822 0.38352,-0.460805 0.88315,-0.69143 1.49707,-0.69143 0.38425,0 0.73606,0.10232 1.05627,0.306958 0.33272,0.204639 0.97344,0.639683 1.92081,1.305863 -0.0258,-0.28193 -0.0899,-0.723582 -0.19224,-1.324983 -0.10232,-0.602139 -0.15399,-1.004371 -0.15399,-1.209746 0,-0.63968 0.19855,-1.107537 0.59531,-1.401982 0.40928,-0.294444 0.9153,-0.441316 1.5167,-0.441316 z m 15.3045,0 c 0.38351,0 0.73576,0.06364 1.05523,0.191719 0.33272,0.128083 0.59594,0.333019 0.78806,0.61495 0.19213,0.26868 0.28784,0.614838 0.28784,1.036629 0,0.320208 -0.0509,0.755253 -0.15399,1.305864 -0.10232,0.538096 -0.17235,0.946935 -0.21136,1.228865 0.41001,-0.28193 0.77504,-0.543896 1.09451,-0.787549 0.33345,-0.256166 0.65297,-0.454198 0.96066,-0.594795 0.30696,-0.153847 0.60835,-0.230477 0.90279,-0.230477 0.6014,0 1.10691,0.230625 1.51619,0.69143 0.41001,0.460806 0.61443,0.99817 0.61443,1.612822 0,0.435041 -0.16596,0.800062 -0.49868,1.094504 -0.33272,0.29445 -0.87082,0.59458 -1.61282,0.90227 -0.74274,0.29445 -1.13962,0.45431 -1.19114,0.48008 0.0515,0.0258 0.4484,0.19223 1.19114,0.49919 0.75525,0.30696 1.29261,0.60122 1.61282,0.88315 0.33272,0.26868 0.49868,0.62049 0.49868,1.05627 0,0.62716 -0.20442,1.17826 -0.61443,1.65158 -0.40928,0.47405 -0.91479,0.71003 -1.51619,0.71003 -0.41001,0 -0.87765,-0.17895 -1.4025,-0.53743 -0.52484,-0.35849 -1.04313,-0.71691 -1.55546,-1.07539 0.064,0.41001 0.14119,0.84506 0.23099,1.30586 0.0891,0.46081 0.13436,0.85078 0.13436,1.17099 0,0.64042 -0.20493,1.12075 -0.61495,1.44022 -0.39676,0.3077 -0.90227,0.46147 -1.51618,0.46147 -0.60214,0 -1.10795,-0.15377 -1.51722,-0.46147 -0.39677,-0.31947 -0.59532,-0.7998 -0.59532,-1.44022 0,-0.20464 0.0512,-0.58874 0.15348,-1.15187 0.10232,-0.56312 0.16647,-1.00477 0.19224,-1.32498 -0.67869,0.47332 -1.12695,0.79379 -1.34411,0.96015 -0.21788,0.15384 -0.47985,0.30072 -0.78754,0.44131 -0.29445,0.14134 -0.57572,0.21136 -0.8444,0.21136 -0.61465,0 -1.11385,-0.23011 -1.4981,-0.69091 -0.371,-0.46081 -0.55707,-1.01777 -0.55707,-1.6707 0,-0.46081 0.16061,-0.82583 0.48008,-1.09451 0.3202,-0.26868 0.83922,-0.54386 1.55546,-0.82579 0.71697,-0.29444 1.12654,-0.46752 1.22886,-0.51831 -0.10232,-0.0515 -0.51189,-0.218 -1.22886,-0.4992 -0.70372,-0.29444 -1.22201,-0.58283 -1.55546,-0.86403 -0.31947,-0.294441 -0.48008,-0.666069 -0.48008,-1.113624 0,-0.627167 0.18607,-1.165267 0.55707,-1.612822 0.38425,-0.460805 0.88345,-0.69143 1.4981,-0.69143 0.38352,0 0.73554,0.10232 1.05575,0.306958 0.33273,0.204639 0.97292,0.639683 1.9203,1.305863 -0.0258,-0.28193 -0.0899,-0.723582 -0.19224,-1.324983 -0.10232,-0.602139 -0.15348,-1.004371 -0.15348,-1.209746 0,-0.63968 0.19855,-1.107537 0.59532,-1.401982 0.40927,-0.294444 0.91508,-0.441316 1.51722,-0.441316 z"
       id="path5960" />
  </g>
</svg>
