<?xml version="1.0" encoding="UTF-8" standalone="no"?>
<!-- Created with Inkscape (http://www.inkscape.org/) -->

<svg
   xmlns:dc="http://purl.org/dc/elements/1.1/"
   xmlns:cc="http://creativecommons.org/ns#"
   xmlns:rdf="http://www.w3.org/1999/02/22-rdf-syntax-ns#"
   xmlns:svg="http://www.w3.org/2000/svg"
   xmlns="http://www.w3.org/2000/svg"
   xmlns:sodipodi="http://sodipodi.sourceforge.net/DTD/sodipodi-0.dtd"
   xmlns:inkscape="http://www.inkscape.org/namespaces/inkscape"
   width="192"
   height="192"
   id="svg3302"
   version="1.1"
   inkscape:version="0.48.5 r10040"
   sodipodi:docname="New document 2">
  <defs
     id="defs3304" />
  <sodipodi:namedview
     id="base"
     pagecolor="#ffffff"
     bordercolor="#666666"
     borderopacity="1.0"
     inkscape:pageopacity="0.0"
     inkscape:pageshadow="2"
     inkscape:zoom="4.0104167"
     inkscape:cx="96"
     inkscape:cy="96"
     inkscape:document-units="px"
     inkscape:current-layer="layer1"
     showgrid="false"
     inkscape:showpageshadow="false"
     showborder="false"
     inkscape:window-width="1680"
     inkscape:window-height="987"
     inkscape:window-x="-8"
     inkscape:window-y="-8"
     inkscape:window-maximized="1">
    <inkscape:grid
       type="xygrid"
       id="grid4080"
       empspacing="4"
       visible="true"
       enabled="true"
       snapvisiblegridlinesonly="true"
       spacingx="12px"
       spacingy="12px" />
    <inkscape:grid
       type="xygrid"
       id="grid4086"
       empspacing="4"
       visible="true"
       enabled="true"
       snapvisiblegridlinesonly="true"
       spacingx="6px"
       spacingy="6px"
       dotted="true" />
    <inkscape:grid
       type="xygrid"
       id="grid4102"
       empspacing="1"
       visible="true"
       enabled="true"
       snapvisiblegridlinesonly="true"
       spacingx="192px"
       spacingy="192px"
       color="#000000"
       opacity="1"
       empcolor="#000000"
       empopacity="1" />
  </sodipodi:namedview>
  <metadata
     id="metadata3307">
    <rdf:RDF>
      <cc:Work
         rdf:about="">
        <dc:format>image/svg+xml</dc:format>
        <dc:type
           rdf:resource="http://purl.org/dc/dcmitype/StillImage" />
        <dc:title></dc:title>
      </cc:Work>
    </rdf:RDF>
  </metadata>
  <g
     inkscape:label="Layer 1"
     inkscape:groupmode="layer"
     id="layer1"
     transform="translate(0,-860.36218)">
    <path
       style="fill:#666666;stroke:none"
       d="M 96 0 C 66 0 36 30 36 60 L 36 120 C 36 150.00002 66 180 96 180 C 126 180 156 150.00002 156 120 L 156 60 C 156 30 126 -1.7360787e-016 96 0 z M 96 24 C 114 24 132 42 132 60 L 132 96 L 132 120 C 132 138 114 156 96 156 C 78 156 60 138 60 120 L 60 96 L 60 60 C 60 42 78 24 96 24 z "
       transform="translate(0,860.36218)"
       id="path4090" />
    <rect
       style="fill:#c8ab37;fill-opacity:1;stroke:none"
       id="rect4092"
       width="168"
       height="120"
       x="12"
       y="932.36218" />
    <path
       style="fill:#b19d4e;fill-opacity:1;stroke:none"
       d="M 36 72 L 36 120 C 36 150.00002 66 180 96 180 C 126 180 156 150.00002 156 120 L 156 72 L 132 72 L 132 96 L 132 120 C 132 138 114 156 96 156 C 78 156 60 138 60 120 L 60 96 L 60 72 L 36 72 z "
       transform="translate(0,860.36218)"
       id="rect4098" />
  </g>
</svg>
