<?xml version="1.0" encoding="UTF-8" standalone="no"?>
<!-- Created with Inkscape (http://www.inkscape.org/) -->

<svg
   xmlns:dc="http://purl.org/dc/elements/1.1/"
   xmlns:cc="http://creativecommons.org/ns#"
   xmlns:rdf="http://www.w3.org/1999/02/22-rdf-syntax-ns#"
   xmlns:svg="http://www.w3.org/2000/svg"
   xmlns="http://www.w3.org/2000/svg"
   xmlns:sodipodi="http://sodipodi.sourceforge.net/DTD/sodipodi-0.dtd"
   xmlns:inkscape="http://www.inkscape.org/namespaces/inkscape"
   width="640.14258"
   height="427.32635"
   viewBox="0 0 169.37106 113.06343"
   version="1.1"
   id="svg8"
   inkscape:version="0.92.1 r15371"
   sodipodi:docname="nilpass-forgetting.svg">
  <defs
     id="defs2" />
  <sodipodi:namedview
     id="base"
     pagecolor="#ffffff"
     bordercolor="#666666"
     borderopacity="1.0"
     inkscape:pageopacity="0"
     inkscape:pageshadow="2"
     inkscape:zoom="1"
     inkscape:cx="339.25009"
     inkscape:cy="79.492303"
     inkscape:document-units="px"
     inkscape:current-layer="layer1"
     showgrid="false"
     inkscape:pagecheckerboard="true"
     fit-margin-top="0"
     fit-margin-left="0"
     fit-margin-right="0"
     fit-margin-bottom="0"
     inkscape:window-width="1680"
     inkscape:window-height="987"
     inkscape:window-x="-8"
     inkscape:window-y="-8"
     inkscape:window-maximized="1"
     inkscape:snap-others="false"
     inkscape:object-nodes="true"
     inkscape:snap-nodes="false"
     units="px" />
  <metadata
     id="metadata5">
    <rdf:RDF>
      <cc:Work
         rdf:about="">
        <dc:format>image/svg+xml</dc:format>
        <dc:type
           rdf:resource="http://purl.org/dc/dcmitype/StillImage" />
        <dc:title></dc:title>
      </cc:Work>
    </rdf:RDF>
  </metadata>
  <g
     inkscape:label="Layer 1"
     inkscape:groupmode="layer"
     id="layer1"
     transform="translate(-32.217699,-31.388963)">
    <path
       inkscape:connector-curvature="0"
       style="fill:#666666;stroke:none;stroke-width:0.26458332"
       d="m 148.57968,92.59406 c -7.9375,0 -15.875,7.9375 -15.875,15.875 v 15.875 c 0,7.9375 7.9375,15.875 15.875,15.875 7.9375,0 15.87501,-7.9375 15.87501,-15.875 v -15.875 c 0,-7.9375 -7.93751,-15.875 -15.87501,-15.875 z m 0,6.35 c 4.7625,0 9.525,4.7625 9.525,9.525 v 9.525 6.35 c 0,4.7625 -4.7625,9.525 -9.525,9.525 -4.7625,0 -9.525,-4.7625 -9.525,-9.525 v -6.35 -9.525 c 0,-4.7625 4.7625,-9.525 9.525,-9.525 z"
       id="path4090" />
    <rect
       style="fill:#c8ab37;fill-opacity:1;stroke:none;stroke-width:0.26458332"
       id="rect4092"
       width="44.450001"
       height="31.75"
       x="126.35469"
       y="111.64406" />
    <path
       inkscape:connector-curvature="0"
       style="fill:#b19d4e;fill-opacity:1;stroke:none;stroke-width:0.26458332"
       d="m 132.70468,111.64406 v 12.7 c 0,7.9375 7.9375,15.875 15.875,15.875 7.9375,0 15.87501,-7.9375 15.87501,-15.875 v -12.7 h -6.35001 v 6.35 6.35 c 0,4.7625 -4.7625,9.525 -9.525,9.525 -4.7625,0 -9.525,-4.7625 -9.525,-9.525 v -6.35 -6.35 z"
       id="rect4098" />
    <circle
       r="3.4100747"
       cy="79.796837"
       cx="-161.10585"
       id="path3424"
       style="fill:#ffffff;stroke:none;stroke-width:1.71544421;stroke-linejoin:round"
       transform="scale(-1,1)" />
    <circle
       r="2.3668838"
       cy="87.234871"
       cx="-156.55983"
       id="path3426"
       style="fill:#ffffff;stroke:none;stroke-width:1.34055591;stroke-linejoin:round"
       transform="scale(-1,1)" />
    <path
       id="path6014"
       d="m 67.66929,53.872215 c -6.55181,0 -11.8636,6.45146 -11.8636,14.409798 0,7.958507 1.74394,14.409967 11.8636,14.409967 10.11965,0 11.863927,-6.45146 11.863927,-14.409967 0,-7.958338 -5.311787,-14.409798 -11.863927,-14.409798 z"
       inkscape:connector-curvature="0"
       style="fill:#ffffff;stroke-width:0.1683663" />
    <path
       style="fill:#ffffff;stroke-width:0.1683663"
       d="m 59.056468,83.797826 c -5.8517,1.442244 -13.549466,6.450899 -13.769186,20.314524 -0.014,0.88683 -0.0208,1.03976 -0.0248,0.96066 5e-4,0.23504 5.16e-4,0.58061 5.16e-4,1.07746 0,0 3.299165,6.64972 22.406383,6.64972 2.823972,0 5.294548,-0.14776 7.46828,-0.39532 V 95.570752 H 88.733724 C 86.175158,87.928898 80.412279,84.58076 76.282806,83.797826 c 0,0 -4.067538,2.48512 -8.613429,2.48512 -4.545888,0 -8.612909,-2.48512 -8.612909,-2.48512 z"
       id="path6020"
       inkscape:connector-curvature="0" />
    <g
       id="g6024"
       transform="matrix(-0.1683663,0,0,0.1683663,111.93448,65.783971)" />
    <g
       id="g6026"
       transform="matrix(-0.1683663,0,0,0.1683663,111.93448,65.783971)" />
    <g
       id="g6028"
       transform="matrix(-0.1683663,0,0,0.1683663,111.93448,65.783971)" />
    <g
       id="g6030"
       transform="matrix(-0.1683663,0,0,0.1683663,111.93448,65.783971)" />
    <g
       id="g6032"
       transform="matrix(-0.1683663,0,0,0.1683663,111.93448,65.783971)" />
    <g
       id="g6034"
       transform="matrix(-0.1683663,0,0,0.1683663,111.93448,65.783971)" />
    <g
       id="g6036"
       transform="matrix(-0.1683663,0,0,0.1683663,111.93448,65.783971)" />
    <g
       id="g6038"
       transform="matrix(-0.1683663,0,0,0.1683663,111.93448,65.783971)" />
    <g
       id="g6040"
       transform="matrix(-0.1683663,0,0,0.1683663,111.93448,65.783971)" />
    <g
       id="g6042"
       transform="matrix(-0.1683663,0,0,0.1683663,111.93448,65.783971)" />
    <g
       id="g6044"
       transform="matrix(-0.1683663,0,0,0.1683663,111.93448,65.783971)" />
    <g
       id="g6046"
       transform="matrix(-0.1683663,0,0,0.1683663,111.93448,65.783971)" />
    <g
       id="g6048"
       transform="matrix(-0.1683663,0,0,0.1683663,111.93448,65.783971)" />
    <g
       id="g6050"
       transform="matrix(-0.1683663,0,0,0.1683663,111.93448,65.783971)" />
    <g
       id="g6052"
       transform="matrix(-0.1683663,0,0,0.1683663,111.93448,65.783971)" />
    <path
       style="fill:none;stroke:#ffffff;stroke-width:1.26015162;stroke-miterlimit:4;stroke-dasharray:10.08121304, 10.08121304;stroke-dashoffset:0"
       d="m 170.60102,72.43115 c 1.1599,-2.53378 1.41819,-5.626542 3.48827,-7.63488 1.43802,0.06251 2.72241,3.9694 3.01495,0.834846 -0.16597,-2.361461 2.38496,-2.989688 3.74235,-1.281589 2.12568,1.5883 4.20277,3.240591 6.25521,4.922145 -0.27739,-1.680707 -1.29076,-3.210459 -1.83228,-4.845342 -1.33681,-1.765627 0.79744,-4.10975 2.74534,-3.091472 0.93868,-0.09309 3.82804,0.965321 3.4569,0.06157 -1.41591,-1.778562 -3.30102,-3.843233 -2.67381,-6.302479 0.30016,-1.947348 1.94979,-3.037814 3.18243,-4.391553 2.45274,-1.976648 -1.85084,-0.448442 -3.10933,-0.491973 -2.44473,0.632695 -2.63237,-2.806079 -1.91254,-4.365833 0.11454,-0.754261 0.82378,-2.79678 -0.43399,-1.36691 -1.03821,1.355868 -4.32915,3.601203 -4.1652,0.313424 -0.42523,-1.957764 0.10182,-4.63058 -0.36996,-6.21907 -1.35777,2.224568 -2.53786,4.560018 -4.00754,6.716653 -1.55922,1.949222 -3.14089,-0.09332 -3.39967,-1.861405 -0.31255,-0.925116 -0.62511,-1.850232 -0.93766,-2.775348 -0.76693,2.283098 -1.44241,4.771572 -3.2281,6.485483 -1.4808,1.371408 -3.7063,0.07044 -4.37177,-1.545138 -1.49938,-1.895573 -1.94539,-4.300268 -2.78102,-6.509369 -0.62066,1.886361 -0.79517,3.885694 -0.95547,5.836211 -1.43983,1.278582 -3.38729,0.05074 -4.56181,-1.051015 -0.31374,1.481615 0.007,3.954556 -2.42787,3.637699 -1.93101,-0.442597 -3.68081,-1.637161 -5.55832,-2.344159 1.14845,2.420659 3.39319,4.633841 3.478,7.371416 -0.84136,2.261235 -3.96415,3.072393 -5.66771,4.783709 -1.49033,1.06384 2.71853,0.30309 3.78788,0.547466 1.85767,0.93214 3.68865,3.635117 2.61966,5.791199 -0.14292,1.070536 -2.17075,4.635377 -0.11971,2.894515 2.33265,-1.342516 4.47366,-3.807094 7.42305,-3.294678 2.74281,-0.637551 2.18843,3.70497 2.82536,4.125494 1.45918,-1.385035 2.20931,-3.827198 4.28814,-4.335629 1.69911,1.311122 1.5065,4.28809 1.84391,6.388574 0.11831,0.999443 0.24179,1.998265 0.36231,2.997442 z"
       id="path5719"
       inkscape:connector-curvature="0" />
    <g
       id="g6146"
       transform="matrix(0.26458333,0,0,0.26458333,78.504998,98.938553)"
       style="fill:#ffffff">
      <g
         display="none"
         id="Layer_3"
         style="display:none;fill:#ffffff">
        <path
           id="path6128"
           display="inline"
           d="M 0,0 V 128 H 128 V 0 Z m 64,109.97 c -5.129,0 -9.287,-4.158 -9.287,-9.287 h 18.573 c 0,5.13 -4.158,9.29 -9.286,9.29 z M 101.22,98.377 H 26.778 v -7.132 c 0,0 2.937,-1.024 3.863,-1.485 1.135,-0.564 3.563,-1.649 4.309,-2.675 0.76,-1.045 1.332,-5.217 1.635,-6.984 0.46,-2.689 0.737,-8.276 0.966,-10.995 0.265,-3.151 0.664,-9.333 0.966,-12.481 0.215,-2.238 0.712,-6.718 1.188,-8.915 0.461,-2.125 1.451,-6.432 2.526,-8.321 0.845,-1.486 2.183,-3.692 4.606,-5.052 3.329,-1.868 7.429,-2.824 7.429,-2.824 0,-5.17 4.191,-9.361 9.361,-9.361 5.171,0 9.362,4.191 9.362,9.361 0,0 4.089,0.794 7.279,2.972 3.047,2.08 3.798,3.414 4.642,4.927 1.1,1.967 1.745,7.13 2.194,9.337 0.441,2.179 0.434,6.119 0.742,8.321 0.406,2.89 0.906,8.708 1.293,11.599 0.371,2.762 1.129,8.288 1.721,11.011 0.402,1.842 0.895,5.759 2.039,7.257 0.789,1.033 3.281,2.124 4.457,2.674 0.926,0.433 3.863,1.338 3.863,1.338 v 7.428 z"
           inkscape:connector-curvature="0"
           style="display:inline;fill:#ffffff" />
      </g>
      <g
         id="Layer_5"
         style="fill:#ffffff">
        <path
           id="path6131"
           d="M 0,0 V 128 H 128 V 0 Z M 60.137,112.85 14.964,67.528 26.11,55.045 56.493,85.288 100.038,16.408 114.06,26.69 Z"
           inkscape:connector-curvature="0"
           style="fill:#ffffff" />
      </g>
    </g>
    <g
       display="none"
       id="g6153"
       style="display:none;fill:#ffffff"
       transform="matrix(0.31720202,0,0,0.31720202,79.066264,98.751464)">
      <path
         id="path6151"
         display="inline"
         d="M 0,0 V 128 H 128 V 0 Z m 64,109.97 c -5.129,0 -9.287,-4.158 -9.287,-9.287 h 18.573 c 0,5.13 -4.158,9.29 -9.286,9.29 z M 101.22,98.377 H 26.778 v -7.132 c 0,0 2.937,-1.024 3.863,-1.485 1.135,-0.564 3.563,-1.649 4.309,-2.675 0.76,-1.045 1.332,-5.217 1.635,-6.984 0.46,-2.689 0.737,-8.276 0.966,-10.995 0.265,-3.151 0.664,-9.333 0.966,-12.481 0.215,-2.238 0.712,-6.718 1.188,-8.915 0.461,-2.125 1.451,-6.432 2.526,-8.321 0.845,-1.486 2.183,-3.692 4.606,-5.052 3.329,-1.868 7.429,-2.824 7.429,-2.824 0,-5.17 4.191,-9.361 9.361,-9.361 5.171,0 9.362,4.191 9.362,9.361 0,0 4.089,0.794 7.279,2.972 3.047,2.08 3.798,3.414 4.642,4.927 1.1,1.967 1.745,7.13 2.194,9.337 0.441,2.179 0.434,6.119 0.742,8.321 0.406,2.89 0.906,8.708 1.293,11.599 0.371,2.762 1.129,8.288 1.721,11.011 0.402,1.842 0.895,5.759 2.039,7.257 0.789,1.033 3.281,2.124 4.457,2.674 0.926,0.433 3.863,1.338 3.863,1.338 v 7.428 z"
         inkscape:connector-curvature="0"
         style="display:inline;fill:#ffffff" />
    </g>
  </g>
</svg>
