<?xml version="1.0" encoding="UTF-8" standalone="no"?>
<!-- Created with Inkscape (http://www.inkscape.org/) -->

<svg
   xmlns:dc="http://purl.org/dc/elements/1.1/"
   xmlns:cc="http://creativecommons.org/ns#"
   xmlns:rdf="http://www.w3.org/1999/02/22-rdf-syntax-ns#"
   xmlns:svg="http://www.w3.org/2000/svg"
   xmlns="http://www.w3.org/2000/svg"
   xmlns:sodipodi="http://sodipodi.sourceforge.net/DTD/sodipodi-0.dtd"
   xmlns:inkscape="http://www.inkscape.org/namespaces/inkscape"
   width="640.14258"
   height="427.32635"
   viewBox="0 0 169.37106 113.06343"
   version="1.1"
   id="svg8"
   inkscape:version="0.92.1 r15371"
   sodipodi:docname="under-the-mat.svg">
  <defs
     id="defs2">
    <linearGradient
       x1="-219.18827"
       y1="491.87426"
       gradientTransform="matrix(0.29786823,0,0,0.23501781,139.63819,117.85954)"
       x2="-217.98781"
       y2="491.87426"
       id="imagebot_30"
       gradientUnits="userSpaceOnUse">
      <stop
         offset="0"
         stop-color="#FFFFFF"
         id="imagebot_33" />
      <stop
         offset="1"
         stop-color="#000000"
         id="imagebot_32" />
    </linearGradient>
  </defs>
  <sodipodi:namedview
     id="base"
     pagecolor="#ffffff"
     bordercolor="#666666"
     borderopacity="1.0"
     inkscape:pageopacity="0"
     inkscape:pageshadow="2"
     inkscape:zoom="1"
     inkscape:cx="289.73199"
     inkscape:cy="160.04505"
     inkscape:document-units="px"
     inkscape:current-layer="layer1"
     showgrid="false"
     inkscape:pagecheckerboard="true"
     fit-margin-top="0"
     fit-margin-left="0"
     fit-margin-right="0"
     fit-margin-bottom="0"
     inkscape:window-width="1680"
     inkscape:window-height="987"
     inkscape:window-x="-8"
     inkscape:window-y="-8"
     inkscape:window-maximized="1"
     inkscape:snap-others="false"
     inkscape:object-nodes="true"
     inkscape:snap-nodes="false"
     units="px" />
  <metadata
     id="metadata5">
    <rdf:RDF>
      <cc:Work
         rdf:about="">
        <dc:format>image/svg+xml</dc:format>
        <dc:type
           rdf:resource="http://purl.org/dc/dcmitype/StillImage" />
        <dc:title></dc:title>
      </cc:Work>
    </rdf:RDF>
  </metadata>
  <g
     inkscape:label="Layer 1"
     inkscape:groupmode="layer"
     id="layer1"
     transform="translate(-32.217699,-31.388963)">
    <g
       display="none"
       id="g6153"
       style="display:none;fill:#ffffff"
       transform="matrix(0.31720202,0,0,0.31720202,79.066264,98.751464)">
      <path
         id="path6151"
         display="inline"
         d="M 0,0 V 128 H 128 V 0 Z m 64,109.97 c -5.129,0 -9.287,-4.158 -9.287,-9.287 h 18.573 c 0,5.13 -4.158,9.29 -9.286,9.29 z M 101.22,98.377 H 26.778 v -7.132 c 0,0 2.937,-1.024 3.863,-1.485 1.135,-0.564 3.563,-1.649 4.309,-2.675 0.76,-1.045 1.332,-5.217 1.635,-6.984 0.46,-2.689 0.737,-8.276 0.966,-10.995 0.265,-3.151 0.664,-9.333 0.966,-12.481 0.215,-2.238 0.712,-6.718 1.188,-8.915 0.461,-2.125 1.451,-6.432 2.526,-8.321 0.845,-1.486 2.183,-3.692 4.606,-5.052 3.329,-1.868 7.429,-2.824 7.429,-2.824 0,-5.17 4.191,-9.361 9.361,-9.361 5.171,0 9.362,4.191 9.362,9.361 0,0 4.089,0.794 7.279,2.972 3.047,2.08 3.798,3.414 4.642,4.927 1.1,1.967 1.745,7.13 2.194,9.337 0.441,2.179 0.434,6.119 0.742,8.321 0.406,2.89 0.906,8.708 1.293,11.599 0.371,2.762 1.129,8.288 1.721,11.011 0.402,1.842 0.895,5.759 2.039,7.257 0.789,1.033 3.281,2.124 4.457,2.674 0.926,0.433 3.863,1.338 3.863,1.338 v 7.428 z"
         inkscape:connector-curvature="0"
         style="display:inline;fill:#ffffff" />
    </g>
    <g
       transform="matrix(0.46641939,0,0,1.1159297,111.86082,-525.2589)"
       id="g33">
      <g
         id="g31">
        <polygon
           style="fill:#c38a5f"
           points="-144.09,557.8 -121.8,507.88 138.93,507.88 167.9,557.8 "
           id="polygon13" />
        <g
           id="g29">
          <path
             style="opacity:0.85"
             inkscape:connector-curvature="0"
             d="m -77.55,541.97 -2.285,-12.435 h -0.087 l -8.639,12.435 h -7.234 l -2.514,-18.268 h 6.69 l 1.203,12.435 h 0.089 l 8.892,-12.435 h 6.264 l 2.328,12.589 h 0.089 l 7.853,-12.589 h 6.562 l -12.114,18.268 z"
             id="path15" />
          <path
             style="opacity:0.85"
             inkscape:connector-curvature="0"
             d="m -33.58,523.7 -0.314,3.377 H -50.16 l -0.598,3.914 h 15.143 l -0.306,3.121 h -15.313 l -0.684,4.479 h 17.312 l -0.311,3.377 h -24.661 l 3.243,-18.268 z"
             id="path17" />
          <path
             style="opacity:0.85"
             inkscape:connector-curvature="0"
             d="m -23.097,523.7 -0.809,14.891 h 15.648 l 0.002,3.377 h -22.977 l 1.445,-18.268 z"
             id="path19" />
          <path
             style="opacity:0.85"
             inkscape:connector-curvature="0"
             d="m 14.337,528.58 c -0.436,-0.384 -0.968,-0.721 -1.596,-1.011 -0.627,-0.29 -1.327,-0.517 -2.1,-0.677 -0.773,-0.163 -1.576,-0.244 -2.408,-0.244 -1.523,0 -2.806,0.175 -3.853,0.523 -1.049,0.351 -1.896,0.819 -2.537,1.408 -0.646,0.588 -1.108,1.258 -1.389,2.009 -0.282,0.75 -0.412,1.526 -0.388,2.327 0.023,0.77 0.201,1.515 0.535,2.239 0.335,0.726 0.854,1.378 1.562,1.958 0.708,0.58 1.625,1.044 2.749,1.394 1.126,0.35 2.486,0.524 4.078,0.524 2.161,0 3.822,-0.374 4.977,-1.125 1.148,-0.751 1.803,-1.741 1.963,-2.969 h 6.748 c -0.053,1.144 -0.401,2.176 -1.048,3.097 -0.654,0.921 -1.565,1.706 -2.737,2.354 -1.178,0.648 -2.588,1.144 -4.225,1.484 -1.643,0.341 -3.468,0.511 -5.472,0.511 -2.492,0 -4.742,-0.242 -6.748,-0.729 -2,-0.486 -3.688,-1.156 -5.063,-2.009 -1.367,-0.852 -2.414,-1.854 -3.143,-3.007 -0.723,-1.15 -1.084,-2.392 -1.092,-3.723 -0.008,-1.363 0.333,-2.63 1.021,-3.8 0.682,-1.167 1.661,-2.187 2.937,-3.057 1.268,-0.87 2.825,-1.553 4.673,-2.047 1.84,-0.494 3.92,-0.742 6.247,-0.742 1.672,0 3.265,0.145 4.778,0.436 1.516,0.29 2.89,0.712 4.124,1.266 1.239,0.556 2.288,1.242 3.149,2.06 0.864,0.819 1.457,1.758 1.775,2.814 H 15.23 c -0.158,-0.45 -0.455,-0.87 -0.893,-1.25 z"
             id="path21" />
          <path
             style="opacity:0.85"
             inkscape:connector-curvature="0"
             d="m 25.293,529.11 c 0.549,-1.167 1.414,-2.187 2.592,-3.057 1.168,-0.87 2.648,-1.553 4.439,-2.047 1.785,-0.494 3.838,-0.742 6.164,-0.742 2.354,0 4.5,0.248 6.444,0.742 1.95,0.494 3.661,1.177 5.133,2.047 1.48,0.87 2.7,1.89 3.657,3.057 0.962,1.17 1.602,2.437 1.915,3.8 0.306,1.331 0.235,2.572 -0.216,3.723 -0.458,1.152 -1.269,2.155 -2.436,3.007 -1.174,0.853 -2.697,1.522 -4.567,2.009 -1.878,0.486 -4.079,0.729 -6.6,0.729 -2.49,0 -4.77,-0.242 -6.831,-0.729 -2.055,-0.486 -3.818,-1.156 -5.289,-2.009 -1.464,-0.852 -2.625,-1.854 -3.483,-3.007 -0.852,-1.15 -1.356,-2.392 -1.514,-3.723 -0.162,-1.36 0.038,-2.63 0.592,-3.8 z m 7.115,6.04 c 0.418,0.726 1.011,1.378 1.784,1.958 0.774,0.58 1.743,1.044 2.907,1.394 1.166,0.35 2.546,0.524 4.136,0.524 1.591,0 2.911,-0.175 3.955,-0.524 1.041,-0.35 1.849,-0.813 2.422,-1.394 0.569,-0.58 0.936,-1.232 1.1,-1.958 0.163,-0.725 0.166,-1.47 0.008,-2.239 -0.164,-0.801 -0.477,-1.577 -0.936,-2.327 -0.458,-0.751 -1.079,-1.421 -1.861,-2.009 -0.781,-0.589 -1.737,-1.058 -2.869,-1.408 -1.128,-0.349 -2.454,-0.523 -3.976,-0.523 -1.521,0 -2.786,0.175 -3.792,0.523 -1.011,0.351 -1.803,0.819 -2.377,1.408 -0.579,0.588 -0.965,1.258 -1.162,2.009 -0.198,0.75 -0.24,1.526 -0.125,2.327 0.108,0.77 0.371,1.52 0.786,2.24 z"
             id="path23" />
          <path
             style="opacity:0.85"
             inkscape:connector-curvature="0"
             d="m 66.434,523.7 10.934,12.562 h 0.089 L 80.368,523.7 h 9.418 l 6.651,18.268 h -6.688 l -4.413,-12.945 h -0.088 l -3.553,12.945 H 76.19 L 64.815,529.15 h -0.087 l 3.408,12.818 H 61.448 L 57.016,523.7 Z"
             id="path25" />
          <path
             style="opacity:0.85"
             inkscape:connector-curvature="0"
             d="m 117.36,523.7 1.575,3.377 h -16.266 l 1.592,3.914 h 15.142 l 1.44,3.121 h -15.312 l 1.821,4.479 h 17.312 l 1.579,3.377 H 101.582 L 94.604,523.7 h 22.758 z"
             id="path27" />
        </g>
      </g>
    </g>
    <rect
       style="fill:#6b4500;stroke-width:0.72145075"
       y="97.206696"
       x="44.696423"
       height="5.2069283"
       width="145.34094"
       id="rect143" />
    <g
       id="g6332"
       transform="translate(-8.9802561,-5.6126601)">
      <path
         d="m 126.88703,83.863788 c -2.00854,2.061943 -4.0183,4.11982 -6.02617,6.18132 -0.84841,0.871486 -1.6792,1.634711 -2.76378,0.564421 -3.55126,-3.508956 -7.1153,-7.001858 -10.68729,-10.487652 -4.14887,-4.047298 -8.441318,-7.941169 -12.797784,-11.762399 -1.051138,-0.920741 -2.103775,-1.838575 -3.165053,-2.748841 -1.270991,-1.091273 0.108678,-2.113904 0.91412,-2.852875 4.523349,-4.151338 8.765797,-8.579641 13.048847,-12.974581 0.71959,-0.737793 2.24002,-2.986861 3.46066,-1.797482 1.15037,0.615883 2.25589,2.201017 3.17888,3.101824 7.84122,7.647379 15.6814,15.276076 23.97099,22.441974 1.40627,1.216176 -1.22675,2.861785 -1.95064,3.511883 -2.45536,2.207514 -4.87567,4.459959 -7.18267,6.822575"
         id="imagebot_28"
         inkscape:connector-curvature="0"
         style="fill:#e6e6e6;stroke-width:0.40562063" />
      <path
         d="m 134.9446,75.143972 c -0.55845,0.563744 -2.83928,0.481902 -3.55611,0.567988 -2.61278,0.309344 -5.23731,0.531487 -7.86453,0.672148 -2.9108,0.154843 -5.84021,0.223059 -8.7502,0.0251 -2.05854,-0.140367 -4.66017,-0.268973 -6.41252,-1.505789 -1.45375,-1.025568 -1.71749,-3.341397 -1.92894,-4.953708 -0.39099,-2.982145 -0.37653,-6.020996 -0.28104,-9.021593 0.0868,-2.710427 0.26942,-5.42024 0.54503,-8.117991 0.0265,-0.251494 0.61037,-3.72498 0.55874,-3.756718 0.28338,0.176619 0.26856,1.546859 0.30226,1.826917 0.19568,1.595489 0.38344,3.192242 0.60919,4.785584 0.5279,3.739937 1.12828,7.600163 2.52391,11.129701 1.6874,4.26496 5.41476,5.141889 9.64345,6.038124 3.06362,0.649695 6.16512,1.102503 9.26852,1.511431 0.50048,0.06633 5.08582,1.074075 5.34224,0.798812"
         id="imagebot_27"
         inkscape:connector-curvature="0"
         style="fill:#cfcaba;stroke-width:0.40562063" />
      <path
         d="m 134.94081,75.120314 c 0.0107,0.01426 0.0107,0.01426 0,0 m -0.003,-0.0037 c -0.32733,-0.10736 -0.66331,-0.175242 -1.0077,-0.204721 0.34473,0.02927 0.68037,0.09736 1.0077,0.204721 M 107.25753,49.054583 c -0.008,-0.004 -0.008,-0.004 0,0"
         id="imagebot_26"
         inkscape:connector-curvature="0"
         style="fill:#ffffd9;stroke-width:0.40562063" />
      <path
         d="m 133.93013,74.911724 c -0.10164,-0.01426 -0.20259,-0.02876 -0.3043,-0.04299 0.10165,0.01426 0.20261,0.02875 0.3043,0.04299 m 1.00769,0.204721 c 0.005,0.006 0.005,0.006 0,0 M 107.22993,49.064669 c -0.002,0.0028 -0.002,0.0028 0,0 m 0.0274,-0.01058 c 0.04,0.201941 0.31431,0.913613 0.2029,1.057738 -0.0155,-0.112848 -0.0458,-0.936846 -0.2029,-1.057738"
         id="imagebot_25"
         inkscape:connector-curvature="0"
         style="fill:#d7cca4;stroke-width:0.40562063" />
      <path
         d="m 107.23622,49.056469 c -0.76477,0.69363 0.12479,3.524326 0.26706,4.392892 0.44593,2.723768 0.74708,5.468212 1.21488,8.188417 0.52585,3.06375 1.01329,8.117316 4.27177,9.777463 3.48271,1.772687 7.84447,2.124516 11.65467,2.663939 1.90117,0.268887 3.80615,0.510139 5.70375,0.805533 1.02158,0.159871 3.75276,1.071401 4.59625,0.259259 -0.22305,0.225428 -3.68674,-0.583965 -4.15173,-0.643364 -2.11626,-0.272173 -4.23155,-0.558503 -6.33777,-0.903035 -3.63902,-0.594681 -8.53365,-1.034341 -11.56859,-3.361636 -2.70558,-2.111907 -3.37539,-6.919979 -3.97676,-10.043991 -0.42109,-2.187295 -0.74059,-4.393264 -1.02112,-6.603296 -0.0609,-0.484007 -0.90024,-4.281636 -0.6523,-4.532014"
         id="imagebot_24"
         inkscape:connector-curvature="0"
         style="fill:#857d63;stroke-width:0.40562063" />
      <path
         d="m 112.88684,70.23571 m 20.73899,4.633033 c -6.40499,-0.87769 -14.11645,-0.991359 -19.91863,-4.11381 5.81113,3.127271 13.50772,3.222557 19.91863,4.11381 M 107.46031,50.111058 c 0.44575,3.36753 0.80649,6.741992 1.44977,10.08067 0.59636,3.099197 1.25142,7.706851 3.80538,9.904816 -2.55362,-2.198182 -3.20813,-6.804258 -3.80482,-9.903237 -0.38983,-2.024713 -0.69281,-4.066243 -0.95786,-6.11117 -0.1438,-1.107536 -0.003,-2.962988 -0.49247,-3.971079"
         id="imagebot_23"
         inkscape:connector-curvature="0"
         style="fill:#ded3ab;stroke-width:0.40562063" />
      <path
         d="m 134.93782,75.116445 c -0.31639,-0.242237 -0.92345,-0.192759 -1.31154,-0.247021 0.0351,0.01012 1.31042,0.246783 1.31154,0.247021 m -27.6802,-26.062052 c -0.0626,-0.04782 0.2203,1.111251 0.20313,1.056615 -0.0156,-0.111791 -0.0463,-0.936057 -0.20313,-1.056615"
         id="imagebot_22"
         inkscape:connector-curvature="0"
         style="fill:#d6cba3;stroke-width:0.40562063" />
      <path
         d="m 91.083099,64.003606 c -0.211505,-0.0037 -0.395631,0.05612 -0.553662,0.18213 -0.03882,0.859565 0.63322,-0.323888 0.553662,-0.18213"
         id="imagebot_21"
         inkscape:connector-curvature="0"
         style="fill:#ffffe6;stroke-width:0.40562063" />
      <path
         d="m 106.10545,64.478059 c -1.76496,0.0074 -14.886298,-1.397289 -15.151946,-0.130723 4.853503,0.900022 10.239506,0.828307 15.161896,0.824997 -0.003,-0.232279 -0.006,-0.463367 -0.009,-0.694271"
         id="imagebot_20"
         inkscape:connector-curvature="0"
         style="fill:#fffff0;stroke-width:0.40562063" />
      <path
         d="m 109.31033,64.636114 c -0.99746,-0.403968 -2.15863,-0.16329 -3.20452,-0.158282 0.009,1.187061 1.23041,0.702456 2.19726,0.625007 0.4368,-0.03453 1.12926,0.06656 1.00726,-0.466725"
         id="imagebot_19"
         inkscape:connector-curvature="0"
         style="fill:#fef3cb;stroke-width:0.40562063" />
      <path
         d="m 109.45608,64.713556 c -0.19726,-0.151343 -0.22317,-0.08125 -0.0783,0.210623 0.14886,-0.0524 0.17499,-0.123012 0.0783,-0.210623"
         id="imagebot_18"
         inkscape:connector-curvature="0"
         style="fill:#eadfb7;stroke-width:0.40562063" />
      <path
         d="m 91.713669,63.34841 c 0.04894,1.62e-4 -1.375007,-0.05376 -1.385113,0.146376 -0.02487,0.545598 1.17122,0.047 1.385113,-0.146376"
         id="imagebot_17"
         inkscape:connector-curvature="0"
         style="fill:#fffad2;stroke-width:0.40562063" />
      <path
         d="m 106.10346,63.888951 c -2.79447,-0.03603 -5.58285,-0.185394 -8.373037,-0.321963 -1.531613,-0.07576 -5.264861,-0.908203 -6.443504,0.167524 1.697321,0.206987 14.816571,0.0199 14.816541,0.154439"
         id="imagebot_16"
         inkscape:connector-curvature="0"
         style="fill:#c7c7c7;stroke-width:0.40562063" />
      <path
         d="m 109.16912,64.001137 c -0.94347,-0.253273 -2.10422,-0.09902 -3.066,-0.111959 -2.9e-4,0.491872 3.20432,0.766257 3.066,0.111959"
         id="imagebot_15"
         inkscape:connector-curvature="0"
         style="fill:#857d63;stroke-width:0.40562063" />
      <path
         d="m 109.28581,64.051033 c -0.30412,-0.23378 0.25485,0.195178 0,0"
         id="imagebot_14"
         inkscape:connector-curvature="0"
         style="fill:#857d63;stroke-width:0.40562063" />
      <path
         d="m 106.10404,64.141206 c -4.49963,-0.408271 -9.077902,-0.605678 -13.589436,-0.287057 4.504037,0.366685 9.072736,0.643863 13.591206,0.623683 -3.4e-4,-0.112097 -0.001,-0.22456 -0.002,-0.336626"
         id="imagebot_13"
         inkscape:connector-curvature="0"
         style="fill:#c7c7c7;stroke-width:0.40562063" />
      <path
         d="m 108.27345,64.396196 c -0.71964,-0.115347 -1.44516,-0.189113 -2.16976,-0.254765 0.002,0.643101 1.59304,0.307758 2.16976,0.254765"
         id="imagebot_12"
         inkscape:connector-curvature="0"
         style="fill:#857d63;stroke-width:0.40562063" />
      <path
         d="m 119.95602,90.953317 c -0.0422,0.03653 -0.76074,0.804732 -0.16899,0.758439 0.14457,-0.224711 0.2004,-0.478848 0.16899,-0.758439"
         id="imagebot_11"
         inkscape:connector-curvature="0"
         style="fill:#ffffe6;stroke-width:0.40562063" />
      <path
         d="m 118.68777,76.525857 c -0.187,-3.11e-4 -0.37441,-0.0012 -0.56139,-0.0015 0.16621,4.781546 0.26263,9.970495 1.41856,14.638392 0.93172,-0.267531 -0.17946,-5.177491 -0.265,-6.064544 -0.27285,-2.848975 -0.49608,-5.710924 -0.59217,-8.572336"
         id="imagebot_10"
         inkscape:connector-curvature="0"
         style="fill:#fffff0;stroke-width:0.40562063" />
      <path
         d="m 118.3851,73.231694 c 0.35524,0.272129 -1.37244,3.295334 0.303,3.293945 -0.0235,-0.677769 0.34388,-2.797343 -0.303,-3.293945"
         id="imagebot_9"
         inkscape:connector-curvature="0"
         style="fill:#fef3cb;stroke-width:0.40562063" />
      <path
         d="m 119.41923,79.079324 c 0.1067,1.737612 0.2351,3.473649 0.39391,5.207332 -0.10088,-1.738443 -0.22573,-3.474891 -0.39391,-5.207332"
         id="imagebot_8"
         inkscape:connector-curvature="0"
         style="fill:#ffffe1;stroke-width:0.40562063" />
      <path
         d="m 119.27453,76.522489 c -0.23379,0.0021 0.11068,2.206336 0.14472,2.556835 -0.053,-0.852027 -0.0986,-1.7042 -0.14472,-2.556835"
         id="imagebot_7"
         inkscape:connector-curvature="0"
         style="fill:#fdf0c8;stroke-width:0.40562063" />
      <path
         d="m 118.93453,73.275829 c 0.0255,0.01933 -0.33589,3.252864 0.34,3.24666 -0.0296,-0.540137 0.18197,-2.84685 -0.34,-3.24666"
         id="imagebot_6"
         inkscape:connector-curvature="0"
         style="fill:#857d63;stroke-width:0.40562063" />
      <path
         d="m 120.40555,90.510775 c -0.21214,0.215412 -0.68105,1.299738 -0.053,1.254073 0.19576,-0.01599 0.0489,-1.304531 0.053,-1.254073"
         id="imagebot_5"
         inkscape:connector-curvature="0"
         style="fill:#fffad2;stroke-width:0.40562063" />
      <path
         d="m 119.81314,84.286656 c 0.12172,2.097575 -0.20237,4.55874 0.22258,6.60027 1.04154,-0.968116 -0.0999,-5.248605 -0.22258,-6.60027"
         id="imagebot_4"
         inkscape:connector-curvature="0"
         style="fill:#c7c7c7;stroke-width:0.40562063" />
      <path
         d="m 119.12972,76.523804 c -0.14702,7.87e-4 -0.29489,0.0012 -0.44195,0.002 0.15683,4.663771 0.42504,9.468949 1.28982,14.064989 0.18997,-4.638754 -0.23465,-9.470879 -0.84787,-14.067042"
         id="imagebot_3"
         inkscape:connector-curvature="0"
         style="fill:#c7c7c7;stroke-width:0.40562063" />
      <path
         d="m 118.69238,74.007354 c -0.0541,0.731135 -0.39044,2.522759 0.43734,2.51645 -0.11192,-0.842797 -0.23107,-1.691511 -0.43734,-2.51645"
         id="imagebot_2"
         inkscape:connector-curvature="0"
         style="fill:#857d63;stroke-width:0.40562063" />
    </g>
    <path
       style="color:#000000;clip-rule:nonzero;display:inline;overflow:visible;visibility:visible;opacity:1;isolation:auto;mix-blend-mode:normal;color-interpolation:sRGB;color-interpolation-filters:linearRGB;solid-color:#000000;solid-opacity:1;fill:#ffffff;fill-opacity:1;fill-rule:evenodd;stroke:none;stroke-width:0.03241369;stroke-linecap:butt;stroke-linejoin:miter;stroke-miterlimit:4;stroke-dasharray:none;stroke-dashoffset:0;stroke-opacity:1;color-rendering:auto;image-rendering:auto;shape-rendering:auto;text-rendering:auto;enable-background:accumulate"
       d="m 159.49063,138.89546 c 0.46,-0.19616 0.91097,-0.42931 1.34912,-0.70084 4.67393,-2.89568 6.11514,-9.03198 3.21958,-13.70599 -1.29513,-2.08222 -3.31287,-3.61342 -5.66703,-4.29972 l 2.49675,-15.52064 -3.68347,15.24613 c -2.37278,-0.39094 -4.80662,0.0904 -6.85223,1.35466 -4.67414,2.89582 -6.11615,9.03221 -3.22017,13.70625 2.62448,4.23558 7.91071,5.81634 12.35744,3.92013 z m 1.12211,-3.80477 c -0.9404,0.39195 -2.03048,0.42547 -3.04668,0.008 -1.41056,-0.58001 -2.30843,-1.87711 -2.44777,-3.29691 l -0.96112,-0.39472 -0.96077,-0.39554 -0.9611,-0.39472 -0.95971,-0.39463 -0.96077,-0.39554 -0.95969,-0.39462 -0.96217,-0.39565 -0.64539,-2.03288 -0.0383,-0.12187 -0.003,-0.0125 -0.0816,-0.25472 6.1e-4,-2.7e-4 -2.4e-4,-6.1e-4 0.24929,-0.12924 0.16863,-0.0875 0.13719,-0.0707 8.3e-4,3.1e-4 1.70512,-0.88504 0.65859,1.15753 1.284,-0.35874 0.65965,1.15845 1.28293,-0.35969 0.66029,1.15819 1.28235,-0.35944 0.97129,0.39939 c 1.08607,-0.81631 2.56296,-1.05647 3.91034,-0.50243 2.03225,0.83565 3.00279,3.16478 2.16723,5.19751 -0.41785,1.01619 -1.20858,1.76715 -2.14909,2.15887 z m 0.086,-1.48399 c 0.0918,-0.0432 0.18302,-0.0951 0.26986,-0.15718 0.10713,-0.0761 0.2081,-0.16781 0.30286,-0.27044 0.0207,-0.0224 0.0417,-0.044 0.0617,-0.0676 0,0 6.2e-4,-2.3e-4 6.2e-4,-2.3e-4 0.037,-0.0437 0.0725,-0.0895 0.10674,-0.13711 0,0 6.2e-4,-2.4e-4 6.2e-4,-2.4e-4 0.0342,-0.0475 0.0668,-0.0973 0.0978,-0.14857 0,0 6.2e-4,-2.4e-4 6.2e-4,-2.4e-4 0.0311,-0.0513 0.0602,-0.10463 0.0878,-0.15943 0,0 6.1e-4,-2.5e-4 6.1e-4,-2.5e-4 0.0276,-0.0548 0.0536,-0.1114 0.0774,-0.1695 0.38375,-0.93266 0.11653,-1.92786 -0.59681,-2.22119 -0.17834,-0.0733 -0.36797,-0.096 -0.55769,-0.0739 -0.0473,0.005 -0.0948,0.0139 -0.14187,0.025 -0.0472,0.0109 -0.094,0.0245 -0.1407,0.0409 0,0 -6.2e-4,2.4e-4 -6.2e-4,2.4e-4 -0.18744,0.0649 -0.36998,0.17159 -0.5368,0.31314 -0.0833,0.0707 -0.16288,0.14998 -0.23705,0.23748 -0.0742,0.0875 -0.14338,0.18344 -0.20575,0.28615 -0.0624,0.10288 -0.11827,0.21345 -0.16619,0.33002 -0.0239,0.0583 -0.0453,0.11643 -0.0642,0.17496 -0.015,0.0464 -0.0274,0.093 -0.0393,0.13919 -0.004,0.0122 -0.007,0.0242 -0.0102,0.0365 -0.028,0.11693 -0.0462,0.23368 -0.0551,0.34813 -0.004,0.0572 -0.007,0.11411 -0.007,0.17011 0,0 2.4e-4,6.2e-4 2.4e-4,6.2e-4 1.6e-4,0.0561 0.003,0.11119 0.007,0.16567 0.01,0.10904 0.0281,0.21394 0.0551,0.31451 0.0134,0.0504 0.0285,0.0997 0.0463,0.14737 0.0174,0.0477 0.038,0.0938 0.0598,0.13831 0.0224,0.0442 0.0456,0.087 0.0715,0.12793 0,0 2.5e-4,6.2e-4 2.5e-4,6.2e-4 0.0253,0.0412 0.054,0.0796 0.0836,0.11671 0.0159,0.0193 0.0328,0.0378 0.0495,0.0562 0.0147,0.0171 0.0296,0.0344 0.0456,0.0502 0,0 6.2e-4,-2.4e-4 6.2e-4,-2.4e-4 0.0115,0.011 0.0239,0.0205 0.0357,0.0311 0.093,0.0841 0.19838,0.15369 0.31705,0.20249 0.31208,0.12833 0.65762,0.10121 0.98007,-0.0481 z"
       id="path5075"
       inkscape:connector-curvature="0" />
  </g>
</svg>
